HIERARCHY
ROOT Hips
{
	OFFSET 0.00000 0.00000 0.00000
	CHANNELS 6 Xposition Yposition Zposition Zrotation Yrotation Xrotation 
	JOINT LHipJoint
	{
		OFFSET 0 0 0
		CHANNELS 3 Zrotation Yrotation Xrotation
		JOINT LeftHip
		{
			OFFSET 1.37590 -1.78394 0.89329
			CHANNELS 3 Zrotation Yrotation Xrotation
			JOINT LeftKnee
			{
				OFFSET 2.47928 -6.81178 0.00000
				CHANNELS 3 Zrotation Yrotation Xrotation
				JOINT LeftAnkle
				{
					OFFSET 2.63345 -7.23535 0.00000
					CHANNELS 3 Zrotation Yrotation Xrotation
					JOINT LeftToe
					{
						OFFSET 0.23938 -0.65768 2.27012
						CHANNELS 3 Zrotation Yrotation Xrotation
						End Site
						{
							OFFSET 0.00000 -0.00000 1.18363
						}
					}
				}
			}
		}
	}
	JOINT RHipJoint
	{
		OFFSET 0 0 0
		CHANNELS 3 Zrotation Yrotation Xrotation
		JOINT RightHip
		{
			OFFSET -1.33617 -1.78394 0.89329
			CHANNELS 3 Zrotation Yrotation Xrotation
			JOINT RightKnee
			{
				OFFSET -2.56922 -7.05888 0.00000
				CHANNELS 3 Zrotation Yrotation Xrotation
				JOINT RightAnkle
				{
					OFFSET -2.56568 -7.04915 0.00000
					CHANNELS 3 Zrotation Yrotation Xrotation
					JOINT RightToe
					{
						OFFSET -0.27533 -0.75646 2.18105
						CHANNELS 3 Zrotation Yrotation Xrotation
						End Site
						{
							OFFSET -0.00000 -0.00000 1.15233
						}
					}
				}
			}
		}
	}
	JOINT lowerback
	{
		OFFSET 0 0 0
		CHANNELS 3 Zrotation Yrotation Xrotation
		JOINT Chest
		{
			OFFSET 0.06190 2.15152 -0.00935
			CHANNELS 3 Zrotation Yrotation Xrotation
			JOINT Chest2
			{
				OFFSET 0.06334 2.15332 0.00872
				CHANNELS 3 Zrotation Yrotation Xrotation
				JOINT lowerneck
				{
					OFFSET 0 0 0
					CHANNELS 3 Zrotation Yrotation Xrotation
					JOINT Neck
					{
						OFFSET -0.04202 1.66908 0.23524
						CHANNELS 3 Zrotation Yrotation Xrotation
						JOINT Head
						{
							OFFSET 0.07510 1.69357 -0.24440
							CHANNELS 3 Zrotation Yrotation Xrotation
							End Site
							{
								OFFSET 0.02556 1.71719 -0.11000
							}
						}
					}
				}
				JOINT LeftCollar
				{
					OFFSET 0 0 0
					CHANNELS 3 Zrotation Yrotation Xrotation
					JOINT LeftShoulder
					{
						OFFSET 3.67168 1.26306 -0.41342
CHANNELS 3 Zrotation Xrotation Yrotation
						JOINT LeftElbow
						{
OFFSET 0 -4.685100 -0.000000
CHANNELS 3 Zrotation Xrotation Yrotation
							JOINT LeftWrist
							{
OFFSET 0 -3.396260 -0.000000
CHANNELS 3 Zrotation Xrotation Yrotation
								JOINT lhand
								{
									OFFSET 0 0 0
CHANNELS 3 Zrotation Xrotation Yrotation
									JOINT LFingers
									{
OFFSET 0 -0.486080 -0.000000
CHANNELS 3 Zrotation Xrotation Yrotation
										End Site
										{
OFFSET 0 -0.391890 -0.000000
										}
									}
								}
								JOINT LThumb
								{
OFFSET 0 0.000000 0.000000
CHANNELS 3 Zrotation Xrotation Yrotation
									End Site
									{
OFFSET 0 -0.397870 0.397870
									}
								}
							}
						}
					}
				}
				JOINT RightCollar
				{
					OFFSET 0 0 0
					CHANNELS 3 Zrotation Yrotation Xrotation
					JOINT RightShoulder
					{
						OFFSET -3.04136 1.42992 -0.76390
CHANNELS 3 Zrotation Xrotation Yrotation
						JOINT RightElbow
						{
OFFSET 0 -5.555760 -0.000000
CHANNELS 3 Zrotation Xrotation Yrotation
							JOINT RightWrist
							{
OFFSET 0 -3.327740 -0.000000
CHANNELS 3 Zrotation Xrotation Yrotation
								JOINT rhand
								{
									OFFSET 0 0 0
CHANNELS 3 Zrotation Xrotation Yrotation
									JOINT RFingers
									{
OFFSET 0 -0.507630 -0.000000
CHANNELS 3 Zrotation Xrotation Yrotation
										End Site
										{
OFFSET 0 -0.409260 -0.000000
										}
									}
								}
								JOINT RThumb
								{
OFFSET 0 0.000000 0.000000
CHANNELS 3 Zrotation Xrotation Yrotation
									End Site
									{
OFFSET 0 -0.415510 0.415510
									}
								}
							}
						}
					}
				}
			}
		}
	}
}
MOTION
Frames: 4
Frame Time: 0.008333333333333333
31.261500 17.605100 5.554400 62.636100 -85.640800 -65.177500 0.000000 0.000000 0.000000 -28.824300 -2.802400 -3.443200 1.292100 7.202200 20.315700 0.393400 -3.800100 -11.155100 0.240900 3.158900 8.721400 0.000000 0.000000 0.000000 3.923500 7.734600 -64.980000 -11.093500 -17.980500 63.084800 -39.496200 8.720900 -166.832600 -1.167700 -6.859500 19.299900 -3.528500 -4.779300 5.837700 1.056000 -6.597300 -1.246700 3.639800 -3.179300 -4.031700 -5.088300 -1.526800 -20.162800 5.386600 -1.783700 17.204200 2.436900 -0.604400 8.794200 -0.000000 -0.000000 0.000000 1.994000 -9.941400 -36.715600 60.976000 -56.564500 35.154400 11.399000 -5.929700 -6.885400 0.000000 0.000000 0.000000 -7.125000 0.000000 0.000000 -12.950700 36.725500 -2.691300 -0.000000 -0.000000 0.000000 -13.441500 20.430900 20.495400 -27.867800 -38.994300 -10.040400 -5.134200 3.910500 7.403100 0.000000 0.000000 0.000000 7.125000 0.000000 -0.000000 18.203000 36.838400 3.810500
31.183127 17.618044 5.547288 57.357185 -85.557805 -60.061233 0.000000 0.000000 0.000000 -28.678507 -2.744083 -2.773263 1.251562 7.092322 19.989337 0.394893 -3.983586 -11.175369 0.241327 3.161531 8.728796 0.000000 0.000000 0.000000 3.574450 7.912610 -66.964918 -10.962997 -17.916707 62.661076 -39.487950 8.548935 -166.781750 -1.171469 -6.870097 19.331121 -3.525869 -4.964990 5.977946 1.156419 -6.844935 -1.178355 3.769662 -3.303331 -4.006453 -4.981409 -1.453263 -20.219481 5.246568 -1.680649 17.211525 2.385055 -0.563009 8.798467 0.000000 0.000000 0.000000 2.493181 -10.733945 -36.991327 61.581219 -56.715982 35.660124 11.489178 -5.754393 -6.819544 0.000000 0.000000 0.000000 -7.125000 0.000000 0.000000 -12.863651 36.665476 -2.691727 0.000000 0.000000 0.000000 -13.627048 21.041595 20.160645 -28.001076 -39.117122 -10.124391 -5.130360 3.812854 7.368181 0.000000 0.000000 0.000000 7.125000 0.000000 0.000000 18.197453 36.804761 3.824937
31.102474 17.629931 5.537431 51.748018 -85.502601 -54.620754 0.000000 0.000000 0.000000 -28.432105 -2.702323 -2.080012 1.210349 6.978727 19.652584 0.397696 -4.139575 -11.214982 0.243908 3.178143 8.775093 0.000000 0.000000 0.000000 3.317731 8.117271 -68.876344 -10.867932 -17.869766 62.351814 -39.475012 8.520070 -166.646849 -1.219207 -7.001914 19.721864 -3.503259 -5.135560 6.244649 1.314450 -7.074154 -1.185277 3.966344 -3.412367 -4.126628 -4.906280 -1.402070 -20.293860 5.082249 -1.596267 17.299016 2.328605 -0.535430 8.834623 0.000000 0.000000 0.000000 2.926092 -11.420897 -37.282385 62.126630 -56.849852 36.116346 11.501809 -5.599866 -6.789506 0.000000 0.000000 0.000000 -7.125000 0.000000 0.000000 -12.847560 36.636412 -2.697644 0.000000 0.000000 0.000000 -13.879669 21.803541 19.878940 -28.194329 -39.294091 -10.246691 -5.105823 3.724712 7.382088 0.000000 0.000000 0.000000 7.125000 0.000000 0.000000 18.220796 36.816400 3.824845
31.020461 17.641003 5.526725 46.692900 -85.442202 -49.724711 0.000000 0.000000 0.000000 -28.193048 -2.671991 -1.381743 1.168447 6.861322 19.305253 0.402570 -4.243120 -11.283983 0.245370 3.187460 8.801018 0.000000 0.000000 0.000000 3.078296 8.341051 -70.711913 -10.813565 -17.842589 62.174537 -39.461085 8.614618 -166.473051 -1.288263 -7.191926 20.285431 -3.497292 -5.284919 6.534732 1.483601 -7.277385 -1.225114 4.186973 -3.506062 -4.292285 -4.860443 -1.363645 -20.350918 4.932429 -1.525933 17.409645 2.280347 -0.515304 8.876959 0.000000 0.000000 0.000000 3.334536 -12.050965 -37.583954 62.578751 -56.958790 36.494926 11.462563 -5.498267 -6.794603 0.000000 0.000000 0.000000 -7.125000 0.000000 0.000000 -12.881045 36.639149 -2.704098 0.000000 0.000000 0.000000 -14.145646 22.607903 19.603807 -28.379819 -39.463546 -10.364255 -5.054874 3.673692 7.399532 0.000000 0.000000 0.000000 7.125000 0.000000 0.000000 18.266538 36.829778 3.829121
